<svg xmlns="http://www.w3.org/2000/svg" xmlns:xlink="http://www.w3.org/1999/xlink" width="500" zoomAndPan="magnify" viewBox="0 0 375 374.999991" height="500" preserveAspectRatio="xMidYMid meet" version="1.0"><defs><clipPath id="bc2bbfd3dd"><path d="M 65.808594 66.691406 L 309.558594 66.691406 L 309.558594 308.191406 L 65.808594 308.191406 Z M 65.808594 66.691406 " clip-rule="nonzero"/></clipPath><clipPath id="8273e1271c"><path d="M 221.421875 73.109375 L 133.953125 66.78125 L 78.464844 75.542969 L 75.054688 127.625 L 65.808594 212.804688 L 70.1875 275.355469 L 95.5 301.394531 L 174.304688 304.316406 L 277.496094 308.210938 L 302.367188 271.214844 L 304.800781 233.738281 L 309.183594 119.351562 L 294.578125 75.542969 Z M 200.589844 155.613281 C 201.269531 151.671875 202.046875 147.726562 202.777344 143.832031 C 204.042969 137.164062 206.574219 130.933594 208.960938 124.65625 C 210.082031 121.6875 211.296875 118.71875 212.515625 115.84375 C 212.804688 115.117188 213.242188 114.53125 213.78125 113.949219 C 218.402344 109.324219 222.882812 104.554688 227.554688 99.976562 C 227.945312 99.589844 228.382812 99.34375 228.917969 99.199219 C 234.808594 97.882812 240.746094 96.8125 246.730469 95.984375 C 248.679688 95.742188 250.675781 95.402344 252.769531 95.109375 C 252.476562 95.890625 252.234375 96.570312 251.941406 97.203125 C 251.257812 98.90625 250.578125 100.5625 249.945312 102.265625 C 249.800781 102.703125 249.507812 103.042969 249.214844 103.335938 C 245.125 107.375 241.28125 111.5625 237.339844 115.699219 C 236.023438 117.0625 235.195312 118.765625 234.273438 120.421875 C 234.027344 120.859375 233.734375 121.25 233.347656 121.589844 C 231.546875 123.097656 229.890625 124.753906 228.136719 126.359375 C 226.824219 127.578125 225.996094 129.085938 225.316406 130.738281 C 224.632812 132.394531 224 134.097656 223.125 135.65625 C 221.46875 138.625 220.300781 141.789062 218.792969 144.808594 C 217.382812 147.726562 215.53125 150.40625 213.78125 153.128906 C 210.761719 157.804688 207.695312 162.476562 204.675781 167.148438 C 203.851562 168.414062 202.875 169.535156 201.953125 170.703125 C 201.511719 171.285156 200.785156 171.382812 200.054688 171.773438 C 199.761719 170.507812 199.613281 169.289062 199.226562 168.121094 C 198.835938 166.757812 199.128906 165.445312 199.273438 164.132812 C 199.710938 161.355469 200.101562 158.484375 200.589844 155.613281 Z M 174.984375 117.015625 C 175.179688 115.210938 175.375 113.460938 175.617188 111.707031 C 175.910156 109.371094 176.152344 107.035156 176.445312 104.699219 C 176.496094 104.359375 176.640625 104.066406 176.835938 103.773438 C 178.394531 100.804688 179.949219 97.882812 181.507812 94.914062 C 181.996094 93.992188 182.96875 93.84375 183.746094 93.40625 C 185.257812 92.675781 186.8125 92.042969 188.324219 91.363281 C 189.441406 90.828125 191.535156 91.363281 192.265625 92.335938 C 193.824219 94.527344 195.28125 96.714844 196.890625 98.859375 C 197.523438 99.683594 197.714844 100.5625 197.765625 101.535156 C 197.910156 103.871094 198.253906 106.160156 198.445312 108.496094 C 198.738281 111.660156 199.078125 114.773438 199.371094 117.890625 C 199.421875 118.230469 199.371094 118.621094 199.371094 118.960938 C 199.421875 120.273438 199.078125 121.539062 198.933594 122.804688 C 198.347656 127.480469 196.839844 131.957031 195.722656 136.53125 C 195.429688 137.75 195.1875 139.015625 194.992188 140.28125 C 194.941406 140.523438 194.941406 140.765625 195.089844 141.011719 C 195.28125 141.300781 195.234375 141.644531 195.234375 141.984375 C 195.234375 148.554688 195.234375 155.175781 195.234375 161.746094 C 195.234375 162.816406 194.796875 163.839844 194.554688 164.910156 C 193.96875 167.488281 193.382812 170.070312 192.65625 172.601562 C 192.65625 172.648438 192.65625 172.699219 192.65625 172.746094 C 192.460938 173.183594 192.3125 173.671875 192.023438 174.0625 C 191.679688 174.546875 191.144531 174.160156 190.707031 174.160156 C 189.683594 174.160156 188.664062 174.160156 187.640625 174.160156 C 187.300781 174.160156 187.152344 174.0625 187.007812 173.71875 C 186.328125 172.40625 185.351562 171.1875 184.527344 169.972656 C 183.550781 168.511719 182.578125 167.003906 181.554688 165.589844 C 180.875 164.667969 180.535156 163.644531 180.339844 162.523438 C 180.046875 160.382812 179.707031 158.289062 179.414062 156.148438 C 179.316406 155.613281 179.753906 155.273438 179.707031 154.738281 C 179.464844 152.742188 179.171875 150.792969 178.878906 148.847656 C 178.585938 147.046875 178.34375 145.246094 178.101562 143.394531 C 177.761719 140.765625 177.417969 138.140625 176.785156 135.609375 C 175.957031 132.347656 175.617188 129.035156 175.132812 125.773438 C 174.9375 124.605469 174.695312 123.488281 174.644531 122.320312 C 174.449219 120.46875 174.789062 118.71875 174.984375 117.015625 Z M 125.386719 97.445312 C 126.457031 96.617188 127.574219 95.792969 128.648438 95.011719 C 128.9375 94.816406 129.230469 94.671875 129.570312 94.625 C 132.054688 94.429688 134.585938 94.332031 137.066406 94.671875 C 138.234375 94.867188 139.5 95.207031 140.621094 95.695312 C 145.390625 97.738281 150.015625 99.976562 154.347656 102.847656 C 155.613281 103.675781 156.441406 104.894531 157.414062 106.011719 C 159.847656 108.835938 162.085938 111.707031 164.277344 114.726562 C 164.957031 115.699219 165.300781 116.769531 165.738281 117.792969 C 167.003906 121.101562 168.269531 124.414062 169.535156 127.671875 C 170.019531 128.9375 170.070312 130.300781 170.363281 131.617188 C 171.042969 134.78125 171.625 137.992188 172.257812 141.15625 C 172.890625 144.320312 173.574219 147.484375 174.15625 150.695312 C 174.351562 151.863281 174.207031 153.128906 174.15625 154.300781 C 174.0625 156.195312 174.15625 158.09375 174.15625 160.042969 C 174.15625 160.722656 174.207031 161.40625 174.207031 162.085938 C 174.253906 164.714844 174.304688 167.390625 174.402344 170.019531 C 174.402344 170.507812 174.304688 170.898438 173.816406 171.285156 C 172.84375 169.730469 171.820312 168.269531 170.898438 166.710938 C 167.539062 161.015625 163.9375 155.515625 160.042969 150.210938 C 159.117188 148.945312 158.726562 147.484375 158.289062 146.023438 C 157.121094 142.375 155.808594 138.773438 153.421875 135.703125 C 152.011719 133.902344 150.746094 132.054688 149.429688 130.203125 C 149.140625 129.765625 148.894531 129.28125 148.554688 128.890625 C 146.414062 126.601562 144.222656 124.316406 142.082031 122.027344 C 138.625 118.328125 134.976562 114.871094 131.273438 111.464844 C 130.398438 110.6875 129.765625 109.761719 129.28125 108.640625 C 127.917969 105.476562 126.457031 102.363281 125.046875 99.199219 C 124.558594 98.566406 124.753906 97.933594 125.386719 97.445312 Z M 91.847656 102.898438 C 92.09375 101.730469 92.53125 100.609375 92.773438 99.441406 C 93.113281 97.980469 93.941406 96.910156 95.109375 96.082031 C 96.082031 95.351562 97.058594 94.574219 98.03125 93.84375 C 98.417969 93.550781 98.761719 93.457031 99.296875 93.550781 C 100.757812 93.84375 101.875 94.625 102.800781 95.792969 C 103.578125 96.765625 104.554688 97.640625 105.476562 98.566406 C 108.738281 101.875 112.097656 105.089844 115.457031 108.300781 C 116.378906 109.175781 117.453125 110.003906 118.277344 110.976562 C 120.519531 113.605469 123.339844 115.503906 126.164062 117.453125 C 129.230469 119.496094 132.296875 121.589844 135.316406 123.632812 C 136.09375 124.167969 136.726562 124.898438 137.359375 125.582031 C 139.453125 127.769531 141.546875 129.914062 143.640625 132.152344 C 145.585938 134.246094 147.582031 136.335938 149.429688 138.578125 C 149.773438 139.015625 149.917969 139.5 150.113281 140.035156 C 150.550781 141.300781 151.039062 142.566406 151.230469 143.882812 C 151.523438 145.488281 152.304688 146.851562 153.277344 148.117188 C 154.835938 150.160156 156.246094 152.351562 157.65625 154.492188 C 160.089844 158.191406 162.574219 161.84375 165.25 165.300781 C 165.835938 166.078125 165.980469 167.003906 166.273438 167.878906 C 167.683594 172.210938 168.511719 176.6875 169.679688 181.070312 C 169.730469 181.3125 169.875 181.558594 169.535156 181.800781 C 168.707031 181.410156 167.832031 181.019531 167.003906 180.632812 C 160.871094 177.664062 154.589844 175.035156 148.554688 171.917969 C 148.066406 171.675781 147.628906 171.285156 147.242188 170.847656 C 145 168.269531 142.03125 166.710938 139.160156 165.054688 C 136.09375 163.304688 132.832031 162.085938 129.570312 160.722656 C 126.066406 159.214844 122.660156 157.609375 119.105469 156.148438 C 117.890625 155.660156 116.722656 155.125 115.457031 154.785156 C 113.65625 154.300781 112.195312 153.226562 110.734375 152.058594 C 109.957031 151.425781 109.128906 150.84375 108.300781 150.257812 C 107.910156 149.96875 107.667969 149.675781 107.523438 149.238281 C 106.207031 145.78125 104.894531 142.277344 103.480469 138.867188 C 102.847656 137.3125 102.265625 135.703125 101.875 134.050781 C 101.828125 133.902344 101.828125 133.710938 101.679688 133.613281 C 100.316406 132.347656 99.78125 130.59375 98.859375 129.085938 C 96.863281 125.726562 95.109375 122.269531 93.308594 118.765625 C 92.96875 118.132812 92.675781 117.453125 92.285156 116.867188 C 91.847656 116.136719 91.75 115.308594 91.652344 114.484375 C 91.410156 112.390625 91.265625 110.296875 91.019531 108.203125 C 91.070312 106.355469 91.460938 104.648438 91.847656 102.898438 Z M 90.144531 169.144531 C 90.144531 168.753906 90.242188 168.464844 90.535156 168.171875 C 92.628906 166.078125 94.71875 163.9375 96.8125 161.84375 C 97.007812 161.648438 97.203125 161.503906 97.496094 161.503906 C 100.511719 161.40625 103.53125 161.792969 106.546875 161.84375 C 109.808594 161.941406 112.730469 163.109375 115.699219 164.375 C 124.460938 168.023438 133.078125 171.820312 141.886719 175.375 C 146.460938 177.226562 150.890625 179.414062 155.417969 181.3125 C 159.605469 183.015625 163.742188 184.769531 167.976562 186.375 C 168.21875 186.472656 168.511719 186.523438 168.707031 186.765625 C 168.367188 187.398438 168.023438 188.03125 167.683594 188.613281 C 167.539062 188.859375 167.246094 188.90625 167.003906 189.003906 C 164.617188 189.976562 162.039062 190.511719 159.554688 191.097656 C 156.195312 191.875 152.789062 192.214844 149.382812 192.65625 C 146.414062 193.042969 143.394531 193.433594 140.425781 193.871094 C 137.117188 194.40625 133.804688 194.941406 130.496094 195.574219 C 128.304688 196.011719 126.164062 196.5 123.972656 196.9375 C 120.957031 197.523438 117.9375 198.058594 114.921875 198.691406 C 112.972656 199.078125 111.027344 199.421875 109.128906 199.957031 C 107.523438 200.394531 105.964844 200.101562 104.359375 199.808594 C 101.679688 199.371094 99.003906 198.835938 96.328125 198.253906 C 95.402344 198.058594 94.71875 197.570312 94.332031 196.597656 C 93.308594 193.824219 92.382812 191 91.410156 188.175781 C 91.167969 187.398438 91.460938 186.667969 91.554688 185.9375 C 91.703125 185.011719 91.996094 184.136719 92.1875 183.210938 C 92.285156 182.773438 92.285156 182.285156 92.09375 181.847656 C 91.410156 179.949219 91.167969 177.90625 90.777344 175.910156 C 90.535156 173.621094 90.242188 171.382812 90.144531 169.144531 Z M 97.203125 257.636719 C 96.035156 257.539062 94.867188 257.636719 93.746094 257.441406 C 93.601562 257.390625 93.503906 257.34375 93.40625 257.246094 C 92.820312 256.46875 92.238281 255.738281 92.140625 254.667969 C 91.996094 252.867188 91.703125 251.113281 91.554688 249.359375 C 91.410156 248.046875 91.3125 246.734375 91.363281 245.371094 C 91.265625 243.859375 91.460938 242.304688 91.652344 240.792969 C 91.703125 240.453125 91.847656 240.113281 91.996094 239.773438 C 94.378906 234.757812 96.910156 229.746094 99.734375 224.925781 C 100.367188 223.855469 101.390625 223.367188 102.3125 222.734375 C 106.109375 220.203125 109.957031 217.722656 113.800781 215.238281 C 118.328125 212.320312 122.953125 209.496094 127.625 206.769531 C 130.398438 205.164062 133.222656 203.605469 136.144531 202.195312 C 137.992188 201.269531 139.84375 200.34375 141.933594 199.957031 C 144.710938 199.421875 147.386719 198.542969 150.0625 197.765625 C 153.714844 196.742188 157.363281 195.671875 161.015625 194.699219 C 162.039062 194.40625 163.15625 194.40625 164.277344 194.359375 C 166.660156 194.261719 169.046875 193.96875 171.433594 194.066406 C 171.675781 194.066406 172.066406 193.96875 172.164062 194.359375 C 172.257812 194.699219 172.164062 194.992188 171.871094 195.234375 C 170.117188 196.742188 168.414062 198.300781 166.710938 199.808594 C 166.027344 200.394531 165.25 200.976562 164.617188 201.5625 C 163.644531 202.488281 162.621094 203.410156 161.695312 204.433594 C 161.648438 204.484375 161.601562 204.53125 161.601562 204.582031 C 161.453125 206.234375 160.140625 207.109375 159.261719 208.28125 C 155.078125 213.730469 150.890625 219.085938 146.65625 224.488281 C 144.660156 227.019531 142.566406 229.5 140.523438 232.03125 C 140.28125 232.324219 139.988281 232.519531 139.695312 232.664062 C 137.019531 234.125 134.148438 235.195312 131.324219 236.363281 C 129.863281 236.996094 128.597656 237.875 127.285156 238.75 C 124.558594 240.503906 121.6875 242.109375 119.007812 243.957031 C 116.769531 245.515625 114.726562 247.316406 112.585938 249.019531 C 109.421875 251.453125 106.402344 254.035156 103.433594 256.664062 C 102.507812 257.488281 101.582031 257.734375 100.414062 257.636719 C 99.246094 257.488281 98.226562 257.683594 97.203125 257.636719 Z M 135.070312 272.042969 C 133.710938 274.476562 131.90625 276.328125 129.523438 277.835938 C 127.382812 279.199219 124.996094 279.878906 122.660156 280.804688 C 118.230469 282.507812 113.703125 284.113281 109.175781 285.671875 C 108.691406 285.820312 108.203125 285.917969 107.667969 285.769531 C 105.234375 285.136719 102.703125 284.894531 100.269531 284.40625 C 99.78125 284.308594 99.589844 284.113281 99.492188 283.628906 C 99.003906 281.097656 98.417969 278.613281 98.03125 276.035156 C 97.980469 275.597656 98.078125 275.304688 98.226562 274.964844 C 99.734375 272.140625 101.535156 269.464844 103.289062 266.785156 C 104.84375 264.402344 106.5 262.066406 108.15625 259.777344 C 109.175781 258.367188 110.636719 257.390625 112 256.320312 C 117.453125 251.84375 123 247.511719 128.597656 243.226562 C 129.472656 242.546875 130.496094 242.253906 131.46875 241.863281 C 135.21875 240.257812 138.722656 238.261719 142.375 236.460938 C 144.808594 235.246094 146.558594 233.492188 148.019531 231.253906 C 149.480469 229.0625 151.328125 227.214844 152.9375 225.121094 C 157.363281 219.378906 161.503906 213.488281 165.589844 207.453125 C 166.808594 205.652344 168.074219 203.898438 169.4375 202.195312 C 169.824219 201.707031 170.265625 201.269531 170.800781 200.878906 C 173.136719 199.273438 175.472656 197.621094 177.808594 196.011719 C 178.003906 195.867188 178.199219 195.671875 178.488281 195.625 C 178.585938 195.867188 178.394531 196.0625 178.296875 196.207031 C 177.613281 197.328125 177.128906 198.59375 176.152344 199.519531 C 175.765625 199.90625 175.519531 200.492188 175.277344 201.027344 C 173.816406 204.042969 171.675781 206.625 169.730469 209.351562 C 167.976562 211.785156 166.417969 214.316406 164.957031 216.894531 C 164.421875 217.867188 163.742188 218.746094 163.109375 219.621094 C 160.917969 222.734375 159.457031 226.191406 157.902344 229.648438 C 155.175781 235.636719 152.253906 241.574219 149.238281 247.414062 C 148.066406 249.652344 147.09375 251.988281 145.828125 254.132812 C 144.855469 255.835938 143.785156 257.488281 142.761719 259.144531 C 140.183594 263.476562 137.457031 267.664062 135.070312 272.042969 Z M 178.585938 195.625 C 178.585938 195.625 178.636719 195.625 178.585938 195.625 C 178.636719 195.625 178.585938 195.625 178.585938 195.625 Z M 184.914062 203.65625 C 184.816406 206.527344 184.625 209.449219 184.574219 212.320312 C 184.574219 213.535156 184.429688 214.753906 184.476562 215.96875 C 184.527344 217.867188 184.085938 219.667969 183.84375 221.46875 C 183.550781 223.320312 183.359375 225.167969 183.164062 226.96875 C 182.871094 229.308594 182.675781 231.691406 182.335938 234.027344 C 182.140625 235.441406 182.042969 236.851562 181.847656 238.261719 C 181.652344 239.578125 181.507812 240.941406 181.265625 242.253906 C 181.019531 243.421875 180.875 244.640625 180.777344 245.855469 C 180.632812 247.511719 180.339844 249.167969 180.097656 250.820312 C 179.804688 252.914062 179.464844 255.007812 179.171875 257.101562 C 178.78125 259.730469 178.441406 262.355469 177.953125 264.984375 C 177.761719 266.105469 177.613281 267.226562 177.515625 268.394531 C 177.417969 269.367188 176.882812 270.144531 176.398438 270.972656 C 174.15625 274.722656 171.820312 278.371094 169.484375 282.023438 C 169 282.753906 168.21875 282.800781 167.488281 282.898438 C 162.960938 283.335938 158.386719 283.386719 153.859375 283.289062 C 152.058594 283.238281 150.308594 282.945312 148.554688 282.847656 C 147.484375 282.753906 146.414062 282.605469 145.34375 282.410156 C 144.808594 282.3125 144.660156 282.070312 144.710938 281.535156 C 144.855469 280.027344 144.953125 278.515625 145.050781 276.960938 C 145.195312 274.867188 145.441406 272.824219 145.632812 270.730469 C 145.78125 269.464844 146.265625 268.394531 146.851562 267.273438 C 148.796875 263.527344 150.648438 259.777344 152.59375 256.078125 C 153.761719 253.789062 155.027344 251.550781 156.148438 249.265625 C 157.996094 245.46875 159.75 241.621094 161.355469 237.679688 C 162.867188 233.882812 164.035156 229.988281 165.347656 226.09375 C 165.882812 224.535156 166.660156 223.175781 167.390625 221.714844 C 168.21875 220.058594 169 218.402344 169.921875 216.796875 C 171.285156 214.558594 172.890625 212.515625 174.449219 210.371094 C 176.496094 207.550781 178.441406 204.726562 180.679688 202 C 181.410156 201.125 182.238281 200.25 182.917969 199.324219 C 183.550781 198.445312 184.378906 198.398438 185.351562 198.691406 C 184.964844 200.394531 184.964844 202 184.914062 203.65625 Z M 184.71875 195.332031 C 182.917969 194.503906 181.214844 193.578125 179.511719 192.507812 C 179.21875 192.3125 179.074219 192.121094 178.929688 191.777344 C 178.148438 189.539062 177.761719 187.25 177.371094 184.914062 C 177.273438 184.183594 177.515625 183.550781 177.953125 182.96875 C 178.683594 181.945312 179.511719 180.972656 180.242188 180 C 180.4375 179.757812 180.632812 179.609375 180.972656 179.5625 C 184.085938 178.878906 187.300781 178.441406 190.464844 177.953125 C 191.777344 177.761719 193.042969 177.613281 194.359375 177.417969 C 194.648438 177.371094 194.84375 177.417969 195.089844 177.613281 C 196.988281 179.316406 198.738281 181.167969 200.539062 182.96875 C 200.785156 183.210938 200.785156 183.550781 200.734375 183.84375 C 200.539062 186.132812 200.003906 188.324219 199.324219 190.464844 C 199.226562 190.707031 199.128906 190.902344 198.933594 191.097656 C 197.667969 192.363281 196.402344 193.578125 195.1875 194.894531 C 194.648438 195.429688 194.113281 195.722656 193.335938 195.820312 C 191.925781 196.011719 190.5625 196.160156 188.761719 196.304688 C 187.542969 196.742188 186.132812 195.964844 184.71875 195.332031 Z M 219.765625 280.074219 C 219.71875 280.414062 219.570312 280.5625 219.230469 280.707031 C 215.386719 282.265625 211.589844 283.871094 207.597656 284.894531 C 207.011719 285.039062 206.671875 284.894531 206.332031 284.457031 C 204.238281 281.777344 202.097656 279.148438 199.957031 276.472656 C 198.445312 274.574219 196.9375 272.628906 195.476562 270.679688 C 195.28125 270.4375 195.089844 270.144531 194.84375 269.902344 C 193.726562 268.878906 193.433594 267.46875 193.09375 266.105469 C 192.558594 264.011719 191.925781 261.917969 191.339844 259.828125 C 190.707031 257.683594 190.367188 255.542969 190.5625 253.351562 C 190.707031 251.890625 190.902344 250.480469 191.097656 249.019531 C 191.339844 247.121094 191.632812 245.222656 191.875 243.324219 C 191.925781 242.789062 191.875 242.253906 192.605469 241.960938 C 192.898438 241.863281 192.945312 241.425781 192.898438 241.085938 C 192.507812 237.242188 191.925781 233.394531 191.535156 229.550781 C 191.195312 226.242188 190.660156 222.882812 190.269531 219.570312 C 189.976562 217.234375 189.734375 214.898438 189.441406 212.5625 C 189.199219 210.617188 188.90625 208.71875 188.613281 206.769531 C 188.417969 205.601562 188.371094 204.484375 188.859375 203.363281 C 189.199219 202.632812 189.296875 201.804688 189.734375 201.074219 C 191.144531 202.242188 192.507812 203.363281 193.628906 204.726562 C 195.722656 207.257812 197.472656 210.03125 199.273438 212.707031 C 199.859375 213.535156 199.957031 214.605469 200.34375 215.53125 C 201.171875 217.480469 201.707031 219.523438 202.144531 221.617188 C 202.777344 224.535156 204.042969 227.261719 205.210938 229.988281 C 206.089844 232.082031 207.355469 234.027344 207.988281 236.171875 C 208.621094 238.3125 209.789062 240.113281 210.859375 241.960938 C 213.390625 246.148438 215.53125 250.53125 217.429688 255.054688 C 218.402344 257.441406 219.378906 259.828125 220.300781 262.261719 C 221.03125 264.253906 221.324219 266.398438 221.761719 268.441406 C 222.101562 270 221.519531 271.460938 221.226562 272.917969 C 220.835938 275.304688 220.300781 277.691406 219.765625 280.074219 Z M 221.421875 279.246094 C 221.714844 277.933594 222.003906 276.621094 222.347656 275.355469 C 222.492188 276.765625 222.199219 278.078125 221.421875 279.246094 Z M 277.398438 276.035156 C 276.667969 278.175781 275.890625 280.320312 274.769531 282.3125 C 274.527344 282.753906 274.234375 282.847656 273.746094 282.753906 C 270.632812 282.214844 267.515625 281.730469 264.402344 281.4375 C 264.207031 281.4375 263.964844 281.390625 263.816406 281.488281 C 262.550781 282.121094 261.1875 282.121094 259.875 282.265625 C 256.710938 282.65625 253.546875 283.238281 250.433594 283.921875 C 249.847656 284.066406 249.3125 284.019531 248.726562 283.773438 C 245.5625 282.65625 242.398438 281.582031 239.285156 280.320312 C 238.117188 279.832031 237.433594 279.003906 236.851562 277.980469 C 235.097656 274.867188 233.101562 271.847656 231.59375 268.636719 C 230.523438 266.300781 229.210938 264.160156 227.992188 261.917969 C 226.242188 258.753906 224.390625 255.640625 222.589844 252.476562 C 220.644531 249.167969 218.695312 245.90625 216.941406 242.496094 C 216.066406 240.84375 215.679688 238.992188 215.09375 237.242188 C 214.21875 234.613281 213.339844 232.03125 212.515625 229.40625 C 211.832031 227.214844 210.371094 225.414062 209.105469 223.5625 C 207.304688 220.933594 205.210938 218.5 203.410156 215.824219 C 202.046875 213.730469 201.269531 211.347656 200.199219 209.105469 C 199.078125 206.769531 198.105469 204.386719 197.035156 202.050781 C 196.890625 201.660156 196.792969 201.320312 196.792969 200.878906 C 196.792969 199.617188 196.792969 198.351562 196.792969 197.085938 C 197.179688 196.9375 197.425781 197.132812 197.714844 197.230469 C 198.835938 197.71875 199.957031 198.253906 201.074219 198.738281 C 201.320312 198.835938 201.511719 199.078125 201.660156 199.273438 C 205.308594 204.824219 209.007812 210.273438 212.660156 215.824219 C 214.800781 219.132812 217.234375 222.199219 219.765625 225.167969 C 220.691406 226.289062 221.90625 227.019531 223.171875 227.75 C 224.246094 228.332031 225.070312 229.257812 225.898438 230.132812 C 228.285156 232.566406 230.765625 234.855469 233.394531 236.949219 C 236.265625 239.238281 239.042969 241.769531 242.304688 243.617188 C 247.414062 246.539062 252.085938 250.140625 256.566406 253.9375 C 261.1875 257.832031 265.8125 261.726562 270.386719 265.617188 C 271.460938 266.542969 272.1875 267.710938 273.015625 268.832031 C 274.429688 270.679688 275.742188 272.578125 277.152344 274.476562 C 277.496094 275.011719 277.59375 275.449219 277.398438 276.035156 Z M 280.949219 253.984375 C 280.855469 254.570312 281 255.152344 281.046875 255.738281 C 281.097656 256.128906 280.902344 256.320312 280.464844 256.371094 C 278.613281 256.46875 276.714844 256.566406 274.867188 256.710938 C 274.574219 256.710938 274.378906 256.566406 274.183594 256.46875 C 269.414062 253.789062 264.695312 251.113281 259.921875 248.4375 C 255.980469 246.199219 252.039062 243.859375 248.09375 241.574219 C 246.636719 240.746094 245.175781 239.917969 243.761719 239.042969 C 242.496094 238.261719 241.476562 237.191406 240.355469 236.21875 C 237.921875 234.222656 235.539062 232.179688 233.199219 230.085938 C 231.058594 228.1875 229.015625 226.144531 226.871094 224.246094 C 223.953125 221.664062 222.101562 218.304688 220.058594 215.09375 C 218.988281 213.390625 218.160156 211.589844 217.089844 209.886719 C 216.117188 208.375 214.996094 206.964844 213.972656 205.503906 C 212.320312 203.21875 210.761719 200.785156 208.910156 198.640625 C 208.277344 197.910156 208.328125 197.375 208.765625 196.597656 C 209.351562 195.625 209.253906 195.625 210.371094 195.914062 C 213.050781 196.644531 215.773438 197.375 218.5 198.105469 C 222.492188 199.226562 226.433594 200.34375 230.378906 201.417969 C 233.980469 202.390625 237.628906 203.265625 241.230469 204.289062 C 244.394531 205.164062 247.511719 206.1875 250.625 207.160156 C 252.71875 207.792969 254.8125 208.28125 256.953125 208.71875 C 257.878906 208.914062 258.753906 209.15625 259.632812 209.738281 C 262.84375 211.832031 266.054688 213.828125 269.171875 216.117188 C 271.558594 217.867188 273.84375 219.71875 276.179688 221.519531 C 276.8125 222.003906 277.105469 222.636719 277.398438 223.320312 C 278.566406 226.09375 279.734375 228.917969 280.757812 231.742188 C 281 232.421875 280.949219 233.152344 280.949219 233.882812 C 281.046875 237.386719 281.195312 240.941406 281.097656 243.910156 C 281.097656 246.246094 281.144531 248.046875 281.097656 249.800781 C 280.949219 251.164062 281.144531 252.574219 280.949219 253.984375 Z M 282.121094 180.144531 C 280.804688 184.476562 279.34375 188.761719 278.03125 193.09375 C 277.785156 193.824219 277.300781 194.210938 276.8125 194.601562 C 274.816406 196.207031 272.726562 197.621094 270.535156 198.984375 C 270.292969 199.128906 270.046875 199.175781 269.753906 199.128906 C 268.585938 198.984375 267.417969 199.03125 265.8125 199.03125 C 262.550781 198.886719 258.851562 198.59375 255.203125 198.15625 C 252.234375 197.8125 249.261719 197.621094 246.246094 197.277344 C 242.253906 196.890625 238.261719 196.5 234.273438 195.964844 C 230.816406 195.527344 227.3125 195.039062 223.855469 194.503906 C 221.957031 194.210938 220.011719 194.019531 218.0625 193.726562 C 216.066406 193.433594 214.316406 192.507812 212.417969 191.875 C 211.34375 191.535156 210.324219 191.097656 209.351562 190.5625 C 208.621094 190.171875 208.570312 189.976562 209.15625 189.394531 C 209.789062 188.761719 210.46875 188.128906 211.152344 187.496094 C 211.589844 187.105469 212.125 186.960938 212.660156 186.765625 C 217.234375 185.355469 221.90625 184.136719 226.53125 183.066406 C 229.550781 182.335938 232.179688 180.777344 234.757812 179.125 C 238.894531 176.496094 243.03125 173.867188 247.363281 171.53125 C 248.824219 170.75 250.335938 170.070312 251.84375 169.4375 C 252.960938 169 254.179688 168.851562 255.347656 168.707031 C 259.289062 168.21875 262.941406 166.710938 266.496094 165.054688 C 267.710938 164.519531 268.929688 163.984375 270.097656 163.402344 C 271.214844 162.816406 272.382812 162.671875 273.550781 162.425781 C 273.84375 162.378906 273.992188 162.476562 274.183594 162.71875 C 276.570312 166.03125 278.957031 169.339844 281.195312 172.746094 C 282.703125 175.082031 282.898438 177.613281 282.121094 180.144531 Z M 284.84375 100.511719 C 284.648438 101.925781 284.457031 103.335938 284.308594 104.746094 C 284.113281 106.160156 283.96875 107.570312 283.773438 108.984375 C 283.578125 110.394531 283.382812 111.804688 283.238281 113.21875 C 283.042969 114.824219 282.800781 116.429688 282.605469 118.085938 C 282.363281 120.175781 282.070312 122.269531 281.828125 124.414062 C 281.632812 126.3125 281.339844 128.257812 281.242188 130.15625 C 281.144531 132.152344 280.269531 133.757812 279.101562 135.265625 C 275.890625 139.5 272.578125 143.6875 269.171875 147.777344 C 268.246094 148.894531 267.273438 149.964844 266.300781 151.085938 C 265.179688 152.402344 263.71875 153.277344 262.308594 154.25 C 257.925781 157.367188 253.5 160.433594 248.921875 163.304688 C 243.664062 166.613281 238.3125 169.730469 232.910156 172.894531 C 230.523438 174.304688 228.136719 175.714844 225.753906 177.175781 C 224.535156 177.90625 223.222656 178.246094 221.90625 178.636719 C 219.132812 179.511719 216.308594 180.390625 213.488281 181.117188 C 211.976562 181.507812 210.519531 181.800781 209.007812 182.140625 C 208.132812 182.335938 207.597656 181.996094 207.355469 181.117188 C 207.011719 179.902344 206.722656 178.636719 206.378906 177.417969 C 206.285156 177.03125 206.378906 176.6875 206.574219 176.347656 C 208.132812 173.234375 210.128906 170.363281 212.320312 167.636719 C 214.558594 164.863281 216.75 161.988281 218.9375 159.167969 C 219.378906 158.582031 219.816406 158 220.351562 157.558594 C 220.738281 157.21875 220.886719 156.878906 220.496094 156.488281 C 220.203125 156.195312 220.398438 156.003906 220.546875 155.757812 C 221.421875 154.054688 222.445312 152.402344 223.367188 150.746094 C 224.78125 148.261719 226.144531 145.730469 227.457031 143.152344 C 229.0625 140.085938 230.71875 137.066406 232.128906 133.902344 C 232.566406 132.882812 233.492188 132.25 234.222656 131.46875 C 237.09375 128.210938 240.015625 124.996094 242.9375 121.785156 C 245.175781 119.300781 247.414062 116.820312 249.652344 114.335938 C 252.523438 111.125 255.398438 107.960938 258.074219 104.554688 C 258.804688 103.578125 259.824219 102.945312 260.75 102.265625 C 263.71875 99.976562 266.738281 97.738281 269.753906 95.5 C 270.046875 95.304688 270.339844 95.160156 270.679688 95.160156 C 272.917969 95.207031 275.160156 94.914062 276.910156 95.011719 C 278.417969 95.011719 279.492188 95.011719 280.5625 95.011719 C 280.949219 95.011719 281.242188 95.109375 281.484375 95.402344 C 282.75 96.765625 283.726562 98.371094 284.796875 99.878906 C 284.84375 100.027344 284.84375 100.269531 284.84375 100.511719 Z M 284.84375 100.511719 " clip-rule="nonzero"/></clipPath><linearGradient x1="0.000000530092" gradientTransform="matrix(0.48675, 0, 0, 0.48675, 65.80746, 66.781218)" y1="248" x2="499.999969" gradientUnits="userSpaceOnUse" y2="248" id="9e8de72716"><stop stop-opacity="1" stop-color="rgb(21.958923%, 71.369934%, 100%)" offset="0"/><stop stop-opacity="1" stop-color="rgb(21.992493%, 71.27533%, 100%)" offset="0.0078125"/><stop stop-opacity="1" stop-color="rgb(22.064209%, 71.073914%, 100%)" offset="0.015625"/><stop stop-opacity="1" stop-color="rgb(22.140503%, 70.858765%, 100%)" offset="0.0234375"/><stop stop-opacity="1" stop-color="rgb(22.216797%, 70.645142%, 100%)" offset="0.03125"/><stop stop-opacity="1" stop-color="rgb(22.294617%, 70.429993%, 100%)" offset="0.0390625"/><stop stop-opacity="1" stop-color="rgb(22.370911%, 70.214844%, 100%)" offset="0.046875"/><stop stop-opacity="1" stop-color="rgb(22.447205%, 70.001221%, 100%)" offset="0.0546875"/><stop stop-opacity="1" stop-color="rgb(22.523499%, 69.786072%, 100%)" offset="0.0625"/><stop stop-opacity="1" stop-color="rgb(22.601318%, 69.570923%, 100%)" offset="0.0703125"/><stop stop-opacity="1" stop-color="rgb(22.677612%, 69.3573%, 100%)" offset="0.078125"/><stop stop-opacity="1" stop-color="rgb(22.753906%, 69.142151%, 100%)" offset="0.0859375"/><stop stop-opacity="1" stop-color="rgb(22.8302%, 68.927002%, 100%)" offset="0.09375"/><stop stop-opacity="1" stop-color="rgb(22.906494%, 68.713379%, 100%)" offset="0.101562"/><stop stop-opacity="1" stop-color="rgb(22.984314%, 68.49823%, 100%)" offset="0.109375"/><stop stop-opacity="1" stop-color="rgb(23.060608%, 68.283081%, 100%)" offset="0.117188"/><stop stop-opacity="1" stop-color="rgb(23.136902%, 68.069458%, 100%)" offset="0.125"/><stop stop-opacity="1" stop-color="rgb(23.213196%, 67.854309%, 100%)" offset="0.132812"/><stop stop-opacity="1" stop-color="rgb(23.291016%, 67.63916%, 100%)" offset="0.140625"/><stop stop-opacity="1" stop-color="rgb(23.36731%, 67.425537%, 100%)" offset="0.148437"/><stop stop-opacity="1" stop-color="rgb(23.443604%, 67.210388%, 100%)" offset="0.15625"/><stop stop-opacity="1" stop-color="rgb(23.519897%, 66.995239%, 100%)" offset="0.164062"/><stop stop-opacity="1" stop-color="rgb(23.597717%, 66.78009%, 100%)" offset="0.171875"/><stop stop-opacity="1" stop-color="rgb(23.674011%, 66.566467%, 100%)" offset="0.179688"/><stop stop-opacity="1" stop-color="rgb(23.750305%, 66.351318%, 100%)" offset="0.1875"/><stop stop-opacity="1" stop-color="rgb(23.826599%, 66.136169%, 100%)" offset="0.195312"/><stop stop-opacity="1" stop-color="rgb(23.902893%, 65.922546%, 100%)" offset="0.203125"/><stop stop-opacity="1" stop-color="rgb(23.980713%, 65.707397%, 100%)" offset="0.210937"/><stop stop-opacity="1" stop-color="rgb(24.057007%, 65.492249%, 100%)" offset="0.21875"/><stop stop-opacity="1" stop-color="rgb(24.133301%, 65.278625%, 100%)" offset="0.226562"/><stop stop-opacity="1" stop-color="rgb(24.209595%, 65.063477%, 100%)" offset="0.234375"/><stop stop-opacity="1" stop-color="rgb(24.287415%, 64.848328%, 100%)" offset="0.242187"/><stop stop-opacity="1" stop-color="rgb(24.363708%, 64.634705%, 100%)" offset="0.25"/><stop stop-opacity="1" stop-color="rgb(24.440002%, 64.419556%, 100%)" offset="0.257812"/><stop stop-opacity="1" stop-color="rgb(24.516296%, 64.204407%, 100%)" offset="0.265625"/><stop stop-opacity="1" stop-color="rgb(24.59259%, 63.990784%, 100%)" offset="0.273438"/><stop stop-opacity="1" stop-color="rgb(24.67041%, 63.775635%, 100%)" offset="0.28125"/><stop stop-opacity="1" stop-color="rgb(24.746704%, 63.560486%, 100%)" offset="0.289062"/><stop stop-opacity="1" stop-color="rgb(24.822998%, 63.346863%, 100%)" offset="0.296875"/><stop stop-opacity="1" stop-color="rgb(24.899292%, 63.131714%, 100%)" offset="0.304688"/><stop stop-opacity="1" stop-color="rgb(24.977112%, 62.916565%, 100%)" offset="0.3125"/><stop stop-opacity="1" stop-color="rgb(25.053406%, 62.701416%, 100%)" offset="0.320312"/><stop stop-opacity="1" stop-color="rgb(25.1297%, 62.487793%, 100%)" offset="0.328125"/><stop stop-opacity="1" stop-color="rgb(25.205994%, 62.272644%, 100%)" offset="0.335937"/><stop stop-opacity="1" stop-color="rgb(25.283813%, 62.057495%, 100%)" offset="0.34375"/><stop stop-opacity="1" stop-color="rgb(25.360107%, 61.843872%, 100%)" offset="0.351562"/><stop stop-opacity="1" stop-color="rgb(25.436401%, 61.628723%, 100%)" offset="0.359375"/><stop stop-opacity="1" stop-color="rgb(25.512695%, 61.413574%, 100%)" offset="0.367188"/><stop stop-opacity="1" stop-color="rgb(25.588989%, 61.199951%, 100%)" offset="0.375"/><stop stop-opacity="1" stop-color="rgb(25.666809%, 60.984802%, 100%)" offset="0.382812"/><stop stop-opacity="1" stop-color="rgb(25.743103%, 60.769653%, 100%)" offset="0.390625"/><stop stop-opacity="1" stop-color="rgb(25.819397%, 60.55603%, 100%)" offset="0.398438"/><stop stop-opacity="1" stop-color="rgb(25.895691%, 60.340881%, 100%)" offset="0.40625"/><stop stop-opacity="1" stop-color="rgb(25.973511%, 60.125732%, 100%)" offset="0.414062"/><stop stop-opacity="1" stop-color="rgb(26.049805%, 59.912109%, 100%)" offset="0.421875"/><stop stop-opacity="1" stop-color="rgb(26.126099%, 59.69696%, 100%)" offset="0.429688"/><stop stop-opacity="1" stop-color="rgb(26.202393%, 59.481812%, 100%)" offset="0.4375"/><stop stop-opacity="1" stop-color="rgb(26.278687%, 59.268188%, 100%)" offset="0.445312"/><stop stop-opacity="1" stop-color="rgb(26.356506%, 59.05304%, 100%)" offset="0.453125"/><stop stop-opacity="1" stop-color="rgb(26.4328%, 58.837891%, 100%)" offset="0.460938"/><stop stop-opacity="1" stop-color="rgb(26.509094%, 58.622742%, 100%)" offset="0.46875"/><stop stop-opacity="1" stop-color="rgb(26.585388%, 58.409119%, 100%)" offset="0.476562"/><stop stop-opacity="1" stop-color="rgb(26.663208%, 58.19397%, 100%)" offset="0.484375"/><stop stop-opacity="1" stop-color="rgb(26.739502%, 57.978821%, 100%)" offset="0.492188"/><stop stop-opacity="1" stop-color="rgb(26.815796%, 57.765198%, 100%)" offset="0.5"/><stop stop-opacity="1" stop-color="rgb(26.89209%, 57.550049%, 100%)" offset="0.507812"/><stop stop-opacity="1" stop-color="rgb(26.968384%, 57.3349%, 100%)" offset="0.515625"/><stop stop-opacity="1" stop-color="rgb(27.046204%, 57.121277%, 100%)" offset="0.523438"/><stop stop-opacity="1" stop-color="rgb(27.122498%, 56.906128%, 100%)" offset="0.53125"/><stop stop-opacity="1" stop-color="rgb(27.198792%, 56.690979%, 100%)" offset="0.539062"/><stop stop-opacity="1" stop-color="rgb(27.275085%, 56.477356%, 100%)" offset="0.546875"/><stop stop-opacity="1" stop-color="rgb(27.352905%, 56.262207%, 100%)" offset="0.554688"/><stop stop-opacity="1" stop-color="rgb(27.429199%, 56.047058%, 100%)" offset="0.5625"/><stop stop-opacity="1" stop-color="rgb(27.505493%, 55.833435%, 100%)" offset="0.570312"/><stop stop-opacity="1" stop-color="rgb(27.581787%, 55.618286%, 100%)" offset="0.578125"/><stop stop-opacity="1" stop-color="rgb(27.659607%, 55.403137%, 100%)" offset="0.585938"/><stop stop-opacity="1" stop-color="rgb(27.735901%, 55.189514%, 100%)" offset="0.59375"/><stop stop-opacity="1" stop-color="rgb(27.812195%, 54.974365%, 100%)" offset="0.601562"/><stop stop-opacity="1" stop-color="rgb(27.888489%, 54.759216%, 100%)" offset="0.609375"/><stop stop-opacity="1" stop-color="rgb(27.964783%, 54.544067%, 100%)" offset="0.617188"/><stop stop-opacity="1" stop-color="rgb(28.042603%, 54.330444%, 100%)" offset="0.625"/><stop stop-opacity="1" stop-color="rgb(28.118896%, 54.115295%, 100%)" offset="0.632812"/><stop stop-opacity="1" stop-color="rgb(28.19519%, 53.900146%, 100%)" offset="0.640625"/><stop stop-opacity="1" stop-color="rgb(28.271484%, 53.686523%, 100%)" offset="0.648438"/><stop stop-opacity="1" stop-color="rgb(28.349304%, 53.471375%, 100%)" offset="0.65625"/><stop stop-opacity="1" stop-color="rgb(28.425598%, 53.256226%, 100%)" offset="0.664063"/><stop stop-opacity="1" stop-color="rgb(28.501892%, 53.042603%, 100%)" offset="0.671875"/><stop stop-opacity="1" stop-color="rgb(28.578186%, 52.827454%, 100%)" offset="0.679688"/><stop stop-opacity="1" stop-color="rgb(28.65448%, 52.612305%, 100%)" offset="0.6875"/><stop stop-opacity="1" stop-color="rgb(28.7323%, 52.398682%, 100%)" offset="0.695313"/><stop stop-opacity="1" stop-color="rgb(28.808594%, 52.183533%, 100%)" offset="0.703125"/><stop stop-opacity="1" stop-color="rgb(28.884888%, 51.968384%, 100%)" offset="0.710938"/><stop stop-opacity="1" stop-color="rgb(28.961182%, 51.754761%, 100%)" offset="0.71875"/><stop stop-opacity="1" stop-color="rgb(29.039001%, 51.539612%, 100%)" offset="0.726562"/><stop stop-opacity="1" stop-color="rgb(29.115295%, 51.324463%, 100%)" offset="0.734375"/><stop stop-opacity="1" stop-color="rgb(29.191589%, 51.11084%, 100%)" offset="0.742187"/><stop stop-opacity="1" stop-color="rgb(29.267883%, 50.895691%, 100%)" offset="0.75"/><stop stop-opacity="1" stop-color="rgb(29.344177%, 50.680542%, 100%)" offset="0.757812"/><stop stop-opacity="1" stop-color="rgb(29.421997%, 50.465393%, 100%)" offset="0.765625"/><stop stop-opacity="1" stop-color="rgb(29.498291%, 50.25177%, 100%)" offset="0.773437"/><stop stop-opacity="1" stop-color="rgb(29.574585%, 50.036621%, 100%)" offset="0.78125"/><stop stop-opacity="1" stop-color="rgb(29.650879%, 49.821472%, 100%)" offset="0.789062"/><stop stop-opacity="1" stop-color="rgb(29.728699%, 49.607849%, 100%)" offset="0.796875"/><stop stop-opacity="1" stop-color="rgb(29.804993%, 49.3927%, 100%)" offset="0.804687"/><stop stop-opacity="1" stop-color="rgb(29.881287%, 49.177551%, 100%)" offset="0.8125"/><stop stop-opacity="1" stop-color="rgb(29.957581%, 48.963928%, 100%)" offset="0.820312"/><stop stop-opacity="1" stop-color="rgb(30.0354%, 48.748779%, 100%)" offset="0.828125"/><stop stop-opacity="1" stop-color="rgb(30.111694%, 48.53363%, 100%)" offset="0.835937"/><stop stop-opacity="1" stop-color="rgb(30.187988%, 48.320007%, 100%)" offset="0.84375"/><stop stop-opacity="1" stop-color="rgb(30.264282%, 48.104858%, 100%)" offset="0.851562"/><stop stop-opacity="1" stop-color="rgb(30.340576%, 47.889709%, 100%)" offset="0.859375"/><stop stop-opacity="1" stop-color="rgb(30.418396%, 47.676086%, 100%)" offset="0.867188"/><stop stop-opacity="1" stop-color="rgb(30.49469%, 47.460938%, 100%)" offset="0.875"/><stop stop-opacity="1" stop-color="rgb(30.570984%, 47.245789%, 100%)" offset="0.882812"/><stop stop-opacity="1" stop-color="rgb(30.647278%, 47.03064%, 100%)" offset="0.890625"/><stop stop-opacity="1" stop-color="rgb(30.725098%, 46.817017%, 100%)" offset="0.898438"/><stop stop-opacity="1" stop-color="rgb(30.801392%, 46.601868%, 100%)" offset="0.90625"/><stop stop-opacity="1" stop-color="rgb(30.877686%, 46.386719%, 100%)" offset="0.914063"/><stop stop-opacity="1" stop-color="rgb(30.953979%, 46.173096%, 100%)" offset="0.921875"/><stop stop-opacity="1" stop-color="rgb(31.030273%, 45.957947%, 100%)" offset="0.929688"/><stop stop-opacity="1" stop-color="rgb(31.108093%, 45.742798%, 100%)" offset="0.9375"/><stop stop-opacity="1" stop-color="rgb(31.184387%, 45.529175%, 100%)" offset="0.945313"/><stop stop-opacity="1" stop-color="rgb(31.260681%, 45.314026%, 100%)" offset="0.953125"/><stop stop-opacity="1" stop-color="rgb(31.336975%, 45.098877%, 100%)" offset="0.960938"/><stop stop-opacity="1" stop-color="rgb(31.414795%, 44.885254%, 100%)" offset="0.96875"/><stop stop-opacity="1" stop-color="rgb(31.491089%, 44.670105%, 100%)" offset="0.976563"/><stop stop-opacity="1" stop-color="rgb(31.567383%, 44.454956%, 100%)" offset="0.984375"/><stop stop-opacity="1" stop-color="rgb(31.643677%, 44.241333%, 100%)" offset="0.992188"/><stop stop-opacity="1" stop-color="rgb(31.721497%, 44.026184%, 100%)" offset="1"/></linearGradient></defs><rect x="-37.5" width="450" fill="#ffffff" y="-37.499999" height="449.999989" fill-opacity="1"/><rect x="-37.5" width="450" fill="#ffffff" y="-37.499999" height="449.999989" fill-opacity="1"/><g clip-path="url(#bc2bbfd3dd)"><g clip-path="url(#8273e1271c)"><path fill="url(#9e8de72716)" d="M 65.808594 66.78125 L 65.808594 308.191406 L 309.183594 308.191406 L 309.183594 66.78125 Z M 65.808594 66.78125 " fill-rule="nonzero"/></g></g></svg>